<?xml version="1.0" standalone="no"?>
<!DOCTYPE svg PUBLIC "-//W3C//DTD SVG 20010904//EN"
 "http://www.w3.org/TR/2001/REC-SVG-20010904/DTD/svg10.dtd">
<svg version="1.0" xmlns="http://www.w3.org/2000/svg"
 width="4267.000000pt" height="4267.000000pt" viewBox="0 0 4267.000000 4267.000000"
 preserveAspectRatio="xMidYMid meet">
<metadata>
Created by potrace 1.11, written by Peter Selinger 2001-2013
</metadata>
<g transform="translate(0.000000,4267.000000) scale(0.100000,-0.100000)"
fill="#000000" stroke="none">
<path d="M9089 42666 c-2 -2 -62 -7 -134 -10 -71 -4 -148 -8 -170 -10 -22 -2
-80 -7 -130 -10 -49 -4 -101 -9 -115 -11 -14 -2 -52 -7 -85 -10 -33 -3 -73 -8
-90 -10 -16 -2 -52 -7 -80 -10 -27 -3 -63 -8 -80 -10 -16 -3 -46 -7 -65 -9
-39 -5 -271 -42 -310 -50 -14 -3 -52 -10 -85 -15 -70 -13 -76 -14 -175 -35
-213 -44 -480 -110 -644 -158 -38 -11 -76 -21 -85 -23 -97 -21 -681 -222 -816
-280 -16 -7 -64 -27 -106 -44 -42 -17 -90 -36 -105 -42 -16 -7 -31 -13 -34
-14 -69 -20 -693 -324 -829 -404 -29 -17 -53 -31 -55 -31 -8 0 -259 -148 -391
-230 -112 -70 -334 -216 -469 -310 -189 -131 -600 -452 -726 -567 -19 -17 -46
-41 -60 -53 -266 -230 -569 -530 -825 -815 -38 -43 -77 -86 -85 -94 -8 -9 -49
-57 -90 -106 -41 -50 -83 -99 -92 -110 -103 -121 -343 -438 -476 -629 -352
-505 -701 -1139 -932 -1691 -23 -55 -48 -113 -55 -130 -151 -347 -387 -1099
-469 -1495 -31 -150 -57 -280 -61 -300 -7 -39 -14 -72 -21 -103 -6 -30 -8 -41
-18 -117 -4 -25 -10 -67 -15 -95 -6 -27 -13 -72 -16 -98 -4 -27 -8 -56 -10
-65 -1 -10 -6 -44 -10 -77 -4 -33 -8 -73 -10 -90 -2 -16 -7 -59 -10 -95 -3
-36 -8 -76 -10 -90 -2 -14 -7 -61 -10 -105 -3 -44 -8 -93 -10 -110 -2 -16 -8
-91 -12 -165 -10 -177 -10 -24626 0 -24795 5 -71 10 -143 12 -160 1 -16 6 -68
9 -115 4 -47 9 -103 11 -125 3 -22 7 -65 11 -95 6 -62 10 -94 19 -165 13 -99
16 -121 26 -190 6 -38 13 -83 15 -100 5 -34 15 -90 21 -120 2 -11 6 -35 9 -54
7 -39 8 -48 29 -156 137 -694 382 -1460 655 -2050 15 -33 38 -82 50 -110 73
-165 251 -507 383 -735 94 -163 252 -419 277 -447 5 -7 10 -14 10 -17 0 -26
474 -673 606 -826 12 -14 63 -74 114 -135 51 -60 98 -115 104 -120 6 -6 45
-48 86 -95 90 -101 87 -97 226 -241 233 -238 477 -467 684 -639 30 -25 70 -59
90 -76 66 -57 185 -151 320 -252 74 -56 140 -105 145 -110 116 -90 470 -324
705 -464 285 -171 369 -216 685 -373 138 -68 331 -158 430 -200 99 -42 194
-83 210 -90 59 -26 461 -174 520 -190 33 -10 67 -22 75 -26 13 -7 213 -68 355
-109 63 -18 189 -52 205 -55 8 -2 43 -11 77 -20 35 -9 71 -18 80 -20 10 -2 56
-13 103 -24 91 -22 409 -87 475 -96 22 -4 47 -8 55 -10 8 -2 38 -7 65 -10 28
-4 59 -9 70 -12 11 -3 31 -7 45 -8 14 -2 79 -10 145 -18 66 -9 145 -19 175
-22 30 -4 66 -8 80 -10 24 -3 73 -8 225 -21 39 -3 88 -7 110 -9 22 -2 110 -7
195 -12 205 -10 24417 -10 24630 0 91 5 181 10 200 12 19 2 78 7 130 10 123
10 145 12 205 19 28 3 75 8 105 11 30 3 66 8 80 10 14 2 50 7 80 10 30 4 57 8
60 10 3 2 34 6 70 10 73 8 356 56 420 71 14 3 39 8 55 11 17 2 80 16 140 29
61 14 121 28 135 30 142 28 618 163 862 245 221 74 696 256 757 290 9 5 68 31
131 60 144 64 398 189 555 274 66 36 127 68 135 72 25 12 291 167 365 213 141
87 398 255 422 275 6 6 35 26 63 45 156 107 626 469 706 545 6 5 37 33 69 60
32 28 66 57 75 65 9 8 61 55 116 104 100 90 476 464 569 566 142 156 338 383
410 475 26 34 59 75 112 139 90 110 390 535 507 718 73 114 256 417 256 424 0
2 10 21 23 42 97 155 320 606 454 917 133 309 312 805 379 1050 2 6 19 68 38
139 19 71 37 135 40 142 5 14 64 258 72 299 5 26 42 198 54 252 6 22 12 58 15
80 4 21 15 85 25 143 11 58 22 122 25 142 3 21 7 55 10 75 3 21 8 47 10 58 2
11 7 47 10 80 4 33 9 74 12 90 2 17 6 46 8 66 5 60 16 162 20 189 2 14 7 68
11 120 4 52 8 111 9 130 2 19 6 100 11 180 11 187 11 24421 1 24640 -5 91 -10
185 -12 210 -2 25 -7 80 -10 123 -3 43 -8 92 -10 110 -2 18 -7 66 -10 107 -4
41 -8 82 -10 90 -2 8 -7 38 -10 65 -3 28 -8 64 -10 80 -2 17 -7 53 -10 80 -3
28 -10 73 -15 100 -5 28 -11 66 -14 85 -6 44 -35 208 -42 240 -2 14 -9 48 -14
75 -17 94 -43 209 -87 390 -19 77 -36 150 -39 162 -2 12 -29 109 -60 215 -125
436 -267 826 -457 1253 -65 149 -277 576 -342 690 -15 28 -57 102 -93 165 -36
63 -77 133 -92 155 -15 22 -29 45 -31 51 -15 40 -398 613 -460 688 -5 6 -48
63 -96 126 -73 98 -237 304 -253 320 -3 3 -43 50 -90 105 -213 252 -525 577
-775 807 -33 31 -73 68 -90 83 -16 15 -91 80 -165 144 -74 64 -137 118 -140
121 -29 30 -386 304 -550 421 -183 131 -638 429 -656 429 -2 0 -33 17 -67 39
-113 70 -339 193 -537 292 -136 68 -369 179 -376 179 -2 0 -27 11 -56 24 -108
49 -148 66 -152 66 -2 0 -25 10 -52 22 -27 12 -69 29 -94 39 -25 9 -76 28
-115 43 -240 93 -663 235 -805 271 -8 2 -69 18 -134 35 -66 18 -127 33 -135
36 -321 75 -395 92 -431 98 -14 3 -50 10 -80 16 -62 12 -79 15 -200 36 -109
19 -126 22 -180 29 -25 3 -56 8 -70 10 -36 6 -86 13 -155 21 -33 3 -67 7 -75
9 -23 4 -108 14 -175 20 -33 3 -80 7 -105 10 -25 2 -85 7 -135 11 -49 3 -112
9 -140 12 -58 6 -24650 14 -24656 8z"/>
</g>
</svg>
